<?xml version="1.0" standalone="no"?>
<!DOCTYPE svg PUBLIC "-//W3C//DTD SVG 20010904//EN"
 "http://www.w3.org/TR/2001/REC-SVG-20010904/DTD/svg10.dtd">
<svg version="1.0" xmlns="http://www.w3.org/2000/svg"
 width="214.000000pt" height="132.000000pt" viewBox="0 0 214.000000 132.000000"
 preserveAspectRatio="xMidYMid meet">

<g transform="translate(0.000000,132.000000) scale(0.100000,-0.100000)"
fill="#000000" stroke="none">
<path d="M1305 1288 c-431 -48 -867 -238 -1111 -484 -75 -74 -100 -108 -135
-179 -40 -80 -43 -94 -44 -164 0 -90 22 -145 80 -204 73 -75 196 -131 345
-158 118 -22 398 -17 545 10 141 25 305 70 305 83 0 5 -9 6 -20 3 -85 -27
-273 -68 -374 -81 -162 -22 -397 -14 -511 15 -277 73 -396 221 -337 418 86
281 532 576 1042 687 337 73 671 56 860 -45 56 -30 133 -100 157 -144 7 -11
15 -17 18 -13 11 10 -30 71 -75 112 -137 123 -429 180 -745 144z"/>
<path d="M2002 1040 c14 -4 32 -11 40 -15 7 -3 4 1 -6 9 -11 9 -29 16 -40 15
-17 -1 -16 -2 6 -9z"/>
<path d="M1947 1022 c-21 -23 -22 -52 -1 -78 15 -18 15 -18 5 3 -15 31 -14 54
6 75 9 10 14 18 11 18 -3 0 -12 -8 -21 -18z"/>
<path d="M1970 984 c0 -35 1 -36 14 -18 14 18 15 18 21 2 4 -10 11 -18 17 -18
5 0 6 6 1 13 -4 6 -8 21 -8 32 0 13 -8 21 -22 23 -20 3 -23 -1 -23 -34z m40
16 c0 -5 -7 -10 -15 -10 -8 0 -15 5 -15 10 0 6 7 10 15 10 8 0 15 -4 15 -10z"/>
<path d="M2049 980 c-3 -24 -11 -38 -29 -47 -16 -8 -19 -13 -9 -13 26 0 51 35
47 67 -4 27 -4 26 -9 -7z"/>
<path d="M577 954 c-13 -13 -7 -52 9 -58 9 -3 36 -6 60 -6 l44 0 0 -150 0
-149 -57 -3 c-52 -3 -58 -5 -61 -27 -2 -13 2 -28 10 -32 17 -11 279 -11 296 0
8 4 12 19 10 32 -3 22 -9 24 -60 27 l-58 3 0 149 0 149 58 3 c56 3 57 3 57 33
l0 30 -151 3 c-82 1 -153 -1 -157 -4z"/>
<path d="M1004 946 c-11 -29 1 -51 29 -54 l27 -3 0 -148 c0 -140 -1 -149 -20
-154 -26 -7 -36 -33 -20 -52 18 -22 162 -21 181 1 19 23 -1 48 -40 52 l-31 3
0 110 c0 61 4 108 8 105 5 -3 49 -68 98 -146 88 -139 89 -140 126 -140 l38 0
0 185 c0 176 1 185 19 185 24 0 37 36 21 55 -9 11 -34 15 -90 15 -84 0 -107
-12 -95 -50 5 -15 15 -20 41 -20 l34 0 0 -111 c0 -63 -4 -108 -9 -105 -5 4
-49 69 -97 146 l-89 140 -63 0 c-45 0 -64 -4 -68 -14z"/>
<path d="M1521 946 c-19 -23 -4 -56 25 -56 l24 0 0 -149 c0 -145 -1 -150 -21
-153 -27 -4 -44 -30 -36 -52 6 -14 21 -16 104 -14 95 3 98 4 101 27 4 26 -12
41 -45 41 -21 0 -23 5 -23 50 l0 50 37 0 c31 0 44 -8 92 -58 31 -32 67 -73 81
-91 23 -31 29 -33 62 -27 54 10 63 59 12 72 -13 4 -34 20 -46 38 -12 17 -32
43 -45 57 l-25 27 23 15 c58 41 74 108 39 164 -33 55 -69 67 -216 71 -108 3
-132 1 -143 -12z m287 -92 c17 -20 20 -29 12 -44 -16 -30 -64 -50 -120 -50
l-50 0 0 66 0 67 68 -7 c54 -5 71 -11 90 -32z"/>
<path d="M405 395 c0 -37 4 -55 13 -55 8 0 12 17 12 50 0 39 3 50 16 50 12 0
15 -7 11 -25 -3 -16 0 -24 7 -22 6 2 11 15 11 28 0 20 -5 24 -35 27 l-35 3 0
-56z"/>
<path d="M738 428 c-5 -38 4 -99 14 -96 5 2 9 7 9 11 -1 4 -1 30 -1 57 0 50
-16 70 -22 28z"/>
<path d="M1318 428 c-5 -36 3 -98 13 -98 5 0 9 27 9 60 0 58 -15 84 -22 38z"/>
<path d="M1522 434 c-37 -26 -26 -104 15 -104 11 0 10 5 -2 24 -20 30 -10 74
19 86 13 6 15 9 6 9 -9 1 -26 -6 -38 -15z"/>
<path d="M1005 422 c-13 -23 -7 -92 8 -92 8 0 11 17 10 51 -2 58 -5 65 -18 41z"/>
<path d="M1585 430 c3 -5 8 -10 11 -10 2 0 4 5 4 10 0 6 -5 10 -11 10 -5 0 -7
-4 -4 -10z"/>
<path d="M1930 385 c0 -59 16 -76 21 -22 5 43 0 77 -12 77 -5 0 -9 -25 -9 -55z"/>
<path d="M520 375 c0 -19 5 -35 10 -35 6 0 10 16 10 35 0 19 -4 35 -10 35 -5
0 -10 -16 -10 -35z"/>
<path d="M595 391 c-11 -36 17 -67 50 -55 17 7 21 59 5 69 -6 4 -10 -9 -10
-30 0 -25 -4 -35 -12 -32 -7 2 -12 18 -12 36 2 34 -11 42 -21 12z"/>
<path d="M697 403 c-11 -11 -8 -48 5 -61 17 -17 33 -15 18 3 -7 8 -10 26 -8
40 5 24 -2 32 -15 18z"/>
<path d="M800 376 c0 -19 5 -38 11 -41 15 -10 17 -4 11 38 -5 47 -22 49 -22 3z"/>
<path d="M850 380 c0 -16 0 -33 -1 -37 0 -4 4 -9 10 -11 7 -2 11 12 11 37 0
23 -4 41 -10 41 -5 0 -10 -13 -10 -30z"/>
<path d="M912 398 c-23 -23 -7 -68 25 -68 10 0 10 6 -3 25 -9 14 -14 32 -10
40 7 18 4 19 -12 3z"/>
<path d="M945 400 c3 -5 8 -10 11 -10 2 0 4 5 4 10 0 6 -5 10 -11 10 -5 0 -7
-4 -4 -10z"/>
<path d="M1064 396 c-8 -20 -1 -59 11 -63 6 -2 10 15 10 37 0 40 -11 53 -21
26z"/>
<path d="M1105 370 c-1 -31 2 -37 12 -28 17 13 17 42 1 56 -10 8 -13 1 -13
-28z"/>
<path d="M1154 399 c-3 -6 4 -21 16 -34 20 -22 21 -23 3 -28 -15 -4 -15 -5 3
-6 12 0 24 5 27 13 7 18 -39 70 -49 55z"/>
<path d="M1274 396 c-11 -27 1 -61 21 -64 15 -2 17 -1 6 6 -9 6 -12 21 -9 41
5 31 -8 43 -18 17z"/>
<path d="M1382 398 c-24 -24 -7 -68 26 -68 11 0 11 3 -1 15 -9 8 -14 26 -13
40 4 29 4 29 -12 13z"/>
<path d="M1417 390 c3 -11 9 -17 15 -14 5 3 4 12 -3 20 -16 19 -18 18 -12 -6z"/>
<path d="M1640 395 c-7 -9 -8 -15 -2 -15 5 0 12 7 16 15 3 8 4 15 2 15 -2 0
-9 -7 -16 -15z"/>
<path d="M1672 373 c3 -42 28 -59 28 -20 0 32 -9 57 -22 57 -5 0 -8 -17 -6
-37z"/>
<path d="M1730 386 c0 -42 11 -56 41 -56 27 0 29 3 29 40 0 22 -4 40 -10 40
-5 0 -10 -16 -10 -35 0 -19 -4 -35 -10 -35 -5 0 -10 16 -10 35 0 24 -5 35 -15
35 -9 0 -15 -9 -15 -24z"/>
<path d="M1840 390 c-14 -26 3 -60 30 -60 20 0 20 0 0 20 -11 11 -20 24 -20
29 0 15 23 26 28 13 2 -7 8 -10 13 -6 14 8 0 24 -21 24 -11 0 -24 -9 -30 -20z"/>
<path d="M1968 370 c5 -44 32 -58 32 -16 0 33 -10 56 -24 56 -7 0 -10 -14 -8
-40z"/>
<path d="M2042 398 c-15 -15 -16 -54 -2 -63 6 -4 10 9 10 30 0 25 4 35 13 32
6 -2 12 -18 12 -35 0 -36 18 -38 23 -3 6 40 -30 65 -56 39z"/>
<path d="M1642 358 c-16 -16 -15 -28 2 -28 9 0 14 9 13 20 -1 11 -2 20 -2 20
-1 0 -6 -5 -13 -12z"/>
<path d="M1580 340 c-9 -6 -10 -10 -3 -10 6 0 15 5 18 10 8 12 4 12 -15 0z"/>
</g>
</svg>
